<?xml version="1.0" encoding="utf-8"?>
<!-- Generator: Adobe Illustrator 25.0.1, SVG Export Plug-In . SVG Version: 6.00 Build 0)  -->
<svg version="1.1" id="Layer_1" xmlns="http://www.w3.org/2000/svg" xmlns:xlink="http://www.w3.org/1999/xlink" x="0px" y="0px"
	 viewBox="0 0 1017.3 1178.5" style="enable-background:new 0 0 1017.3 1178.5;" xml:space="preserve">
<style type="text/css">
	.st0{fill:#FFFFFF;}
	.st1{fill:#607D8B;}
	.st2{fill:#007C91;}
	.st3{fill:#E91E63;}
	.st4{fill:#D3D3D3;}
	.st5{fill:#5B5B5A;}
	.st6{fill:#26C6DA;}
	.st7{fill:#FEFEFE;}
	.st8{fill:#00ACC1;}
	.st9{fill:#3B9D3C;}
	.st10{fill:#303030;}
	.st11{fill:#5DDEF4;}
	.st12{fill:#FFFFFF;stroke:#FFFFFF;stroke-width:0.25;stroke-miterlimit:10;}
	.st13{fill:#4C4C4C;}
</style>
<rect class="st0" width="1017.3" height="1178.5"/>
<g>
	<g>
		<path class="st1" d="M94.6,1076l10.4,29.2l10.3-29.2h10.9v40.3h-8.3v-11l0.8-19l-10.9,30h-5.7l-10.9-30l0.8,19v11h-8.3V1076H94.6z
			"/>
		<path class="st1" d="M173.3,1097.1c0,4-0.7,7.4-2.1,10.4c-1.4,3-3.4,5.3-6,6.9c-2.6,1.6-5.6,2.4-9,2.4c-3.3,0-6.3-0.8-8.9-2.4
			c-2.6-1.6-4.7-3.9-6.1-6.9c-1.4-3-2.2-6.4-2.2-10.3v-2c0-4,0.7-7.5,2.1-10.5c1.4-3,3.4-5.3,6.1-7c2.6-1.6,5.6-2.4,9-2.4
			s6.3,0.8,9,2.4c2.6,1.6,4.6,3.9,6.1,7c1.4,3,2.1,6.5,2.1,10.4V1097.1z M164.9,1095.3c0-4.2-0.8-7.4-2.3-9.6
			c-1.5-2.2-3.7-3.3-6.5-3.3c-2.8,0-4.9,1.1-6.5,3.3c-1.5,2.2-2.3,5.3-2.3,9.5v2c0,4.1,0.8,7.3,2.3,9.6c1.5,2.3,3.7,3.4,6.5,3.4
			c2.8,0,4.9-1.1,6.4-3.3c1.5-2.2,2.3-5.4,2.3-9.6V1095.3z"/>
		<path class="st1" d="M186.2,1116.4V1076h14.1c4.9,0,8.6,0.9,11.1,2.8c2.5,1.9,3.8,4.6,3.8,8.2c0,2-0.5,3.7-1.5,5.2
			c-1,1.5-2.4,2.6-4.2,3.3c2.1,0.5,3.7,1.6,4.9,3.1c1.2,1.6,1.8,3.5,1.8,5.8c0,3.9-1.2,6.8-3.7,8.8c-2.5,2-6,3-10.6,3H186.2z
			 M194.5,1092.9h6.1c4.2-0.1,6.3-1.7,6.3-5c0-1.8-0.5-3.1-1.6-3.9c-1.1-0.8-2.7-1.2-5-1.2h-5.8V1092.9z M194.5,1098.8v10.9h7.1
			c2,0,3.5-0.5,4.6-1.4c1.1-0.9,1.7-2.2,1.7-3.9c0-3.7-1.9-5.6-5.7-5.6H194.5z"/>
		<path class="st1" d="M238,1116.4h-8.3V1076h8.3V1116.4z"/>
		<path class="st1" d="M260.8,1109.7h17.6v6.7h-25.9V1076h8.3V1109.7z"/>
		<path class="st1" d="M314.3,1098.9h-15.9v10.8H317v6.7h-27V1076h27v6.7h-18.7v9.6h15.9V1098.9z"/>
		<path class="st1" d="M378.3,1082.8H366v33.6h-8.3v-33.6h-12.2v-6.7h32.8V1082.8z"/>
		<path class="st1" d="M409.3,1108.1h-14.6l-2.8,8.3h-8.8l15-40.3h7.7l15.1,40.3h-8.8L409.3,1108.1z M397,1101.3h10.1l-5.1-15.1
			L397,1101.3z"/>
		<path class="st1" d="M431.5,1116.4V1076h14.1c4.9,0,8.6,0.9,11.1,2.8c2.5,1.9,3.8,4.6,3.8,8.2c0,2-0.5,3.7-1.5,5.2
			c-1,1.5-2.4,2.6-4.2,3.3c2.1,0.5,3.7,1.6,4.9,3.1c1.2,1.6,1.8,3.5,1.8,5.8c0,3.9-1.2,6.8-3.7,8.8c-2.5,2-6,3-10.6,3H431.5z
			 M439.8,1092.9h6.1c4.2-0.1,6.3-1.7,6.3-5c0-1.8-0.5-3.1-1.6-3.9c-1.1-0.8-2.7-1.2-5-1.2h-5.8V1092.9z M439.8,1098.8v10.9h7.1
			c2,0,3.5-0.5,4.6-1.4c1.1-0.9,1.6-2.2,1.6-3.9c0-3.7-1.9-5.6-5.7-5.6H439.8z"/>
		<path class="st1" d="M493.8,1105.5c0-1.9,0.5-3.6,1.6-5.2s3-3.3,5.7-5.3c-1.2-1.6-2.1-3.1-2.8-4.5c-0.7-1.4-1-2.9-1-4.4
			c0-3.1,1-5.7,3-7.7c2-2,4.7-2.9,8-2.9c3,0,5.5,0.9,7.4,2.7c1.9,1.8,2.9,4,2.9,6.7c0,3.2-1.6,6-4.9,8.5l-3.1,2.2l6.9,8.1
			c1.1-2.1,1.6-4.5,1.6-7.1h6.8c0,5.2-1.2,9.5-3.6,12.7l6,7h-9.1l-2.1-2.4c-3,2-6.4,2.9-10.2,2.9c-4,0-7.2-1-9.6-3.1
			C495,1111.7,493.8,1108.9,493.8,1105.5z M507.4,1110.5c1.9,0,3.7-0.5,5.5-1.6l-7.9-9.2l-0.6,0.4c-1.6,1.4-2.5,3-2.5,4.9
			c0,1.6,0.5,2.9,1.5,3.9C504.4,1110,505.7,1110.5,507.4,1110.5z M504.4,1086c0,1.4,0.8,3.1,2.4,5.2l2.1-1.4c1.1-0.7,1.8-1.4,2.3-2
			c0.4-0.7,0.6-1.5,0.6-2.4c0-0.9-0.3-1.7-1-2.4c-0.7-0.7-1.6-1-2.6-1c-1.1,0-2.1,0.4-2.8,1.1S504.4,1084.8,504.4,1086z"/>
		<path class="st1" d="M583.1,1108.1h-14.6l-2.8,8.3H557l15-40.3h7.7l15.1,40.3h-8.8L583.1,1108.1z M570.8,1101.3h10.1l-5.1-15.1
			L570.8,1101.3z"/>
		<path class="st1" d="M636.4,1102.9c-0.3,4.3-1.9,7.8-4.8,10.2c-2.9,2.5-6.7,3.7-11.4,3.7c-5.2,0-9.2-1.7-12.2-5.2
			c-3-3.5-4.4-8.3-4.4-14.3v-2.5c0-3.9,0.7-7.3,2-10.2c1.4-3,3.3-5.2,5.9-6.8c2.5-1.6,5.5-2.4,8.8-2.4c4.7,0,8.4,1.2,11.2,3.7
			c2.8,2.5,4.5,6,4.9,10.5h-8.3c-0.2-2.6-0.9-4.5-2.2-5.7c-1.2-1.2-3.1-1.8-5.7-1.8c-2.8,0-4.8,1-6.2,3c-1.4,2-2.1,5.1-2.1,9.2v3
			c0,4.4,0.7,7.5,2,9.6c1.3,2,3.4,3,6.2,3c2.6,0,4.5-0.6,5.7-1.8c1.3-1.2,2-3,2.2-5.4H636.4z"/>
		<path class="st1" d="M680.3,1102.9c-0.3,4.3-1.9,7.8-4.8,10.2c-2.9,2.5-6.7,3.7-11.4,3.7c-5.2,0-9.2-1.7-12.2-5.2
			c-3-3.5-4.4-8.3-4.4-14.3v-2.5c0-3.9,0.7-7.3,2-10.2c1.4-3,3.3-5.2,5.9-6.8c2.5-1.6,5.5-2.4,8.8-2.4c4.7,0,8.4,1.2,11.2,3.7
			c2.8,2.5,4.5,6,4.9,10.5H672c-0.2-2.6-0.9-4.5-2.2-5.7c-1.2-1.2-3.1-1.8-5.7-1.8c-2.8,0-4.8,1-6.2,3c-1.4,2-2.1,5.1-2.1,9.2v3
			c0,4.4,0.7,7.5,2,9.6c1.3,2,3.4,3,6.2,3c2.6,0,4.5-0.6,5.7-1.8c1.3-1.2,2-3,2.2-5.4H680.3z"/>
		<path class="st1" d="M716.8,1098.9h-15.9v10.8h18.7v6.7h-27V1076h27v6.7h-18.7v9.6h15.9V1098.9z"/>
		<path class="st1" d="M752.2,1105.8c0-1.6-0.6-2.8-1.7-3.6c-1.1-0.8-3.1-1.7-6-2.7c-2.9-0.9-5.2-1.9-6.8-2.8
			c-4.6-2.5-6.9-5.8-6.9-10c0-2.2,0.6-4.1,1.8-5.8c1.2-1.7,3-3,5.3-4c2.3-1,4.9-1.4,7.7-1.4c2.9,0,5.4,0.5,7.7,1.6
			c2.3,1,4,2.5,5.2,4.4c1.2,1.9,1.9,4.1,1.9,6.5h-8.3c0-1.8-0.6-3.3-1.7-4.3c-1.2-1-2.8-1.5-4.9-1.5c-2,0-3.6,0.4-4.7,1.3
			c-1.1,0.9-1.7,2-1.7,3.4c0,1.3,0.7,2.4,2,3.3c1.3,0.9,3.3,1.7,5.8,2.5c4.7,1.4,8.2,3.2,10.3,5.3c2.2,2.1,3.2,4.7,3.2,7.9
			c0,3.5-1.3,6.2-4,8.2c-2.6,2-6.2,3-10.7,3c-3.1,0-5.9-0.6-8.5-1.7c-2.5-1.1-4.5-2.7-5.8-4.7c-1.3-2-2-4.3-2-6.9h8.3
			c0,4.4,2.7,6.7,8,6.7c2,0,3.5-0.4,4.6-1.2S752.2,1107.2,752.2,1105.8z"/>
		<path class="st1" d="M793.8,1105.8c0-1.6-0.6-2.8-1.7-3.6c-1.1-0.8-3.1-1.7-6-2.7c-2.9-0.9-5.2-1.9-6.8-2.8
			c-4.6-2.5-6.9-5.8-6.9-10c0-2.2,0.6-4.1,1.8-5.8c1.2-1.7,3-3,5.3-4c2.3-1,4.9-1.4,7.7-1.4c2.9,0,5.4,0.5,7.7,1.6
			c2.3,1,4,2.5,5.2,4.4c1.2,1.9,1.9,4.1,1.9,6.5h-8.3c0-1.8-0.6-3.3-1.7-4.3c-1.2-1-2.8-1.5-4.9-1.5c-2,0-3.6,0.4-4.7,1.3
			c-1.1,0.9-1.7,2-1.7,3.4c0,1.3,0.7,2.4,2,3.3c1.3,0.9,3.3,1.7,5.8,2.5c4.7,1.4,8.2,3.2,10.3,5.3c2.2,2.1,3.2,4.7,3.2,7.9
			c0,3.5-1.3,6.2-4,8.2c-2.6,2-6.2,3-10.7,3c-3.1,0-5.9-0.6-8.5-1.7c-2.5-1.1-4.5-2.7-5.8-4.7c-1.3-2-2-4.3-2-6.9h8.3
			c0,4.4,2.7,6.7,8,6.7c2,0,3.5-0.4,4.6-1.2S793.8,1107.2,793.8,1105.8z"/>
		<path class="st1" d="M847.7,1097.1c0,4-0.7,7.4-2.1,10.4c-1.4,3-3.4,5.3-6,6.9c-2.6,1.6-5.6,2.4-9,2.4c-3.3,0-6.3-0.8-8.9-2.4
			c-2.6-1.6-4.7-3.9-6.1-6.9c-1.4-3-2.2-6.4-2.2-10.3v-2c0-4,0.7-7.5,2.2-10.5c1.4-3,3.4-5.3,6.1-7c2.6-1.6,5.6-2.4,9-2.4
			c3.4,0,6.3,0.8,9,2.4c2.6,1.6,4.6,3.9,6.1,7c1.4,3,2.1,6.5,2.1,10.4V1097.1z M839.3,1095.3c0-4.2-0.8-7.4-2.3-9.6
			c-1.5-2.2-3.7-3.3-6.5-3.3c-2.8,0-4.9,1.1-6.5,3.3c-1.5,2.2-2.3,5.3-2.3,9.5v2c0,4.1,0.8,7.3,2.3,9.6c1.5,2.3,3.7,3.4,6.5,3.4
			c2.8,0,4.9-1.1,6.4-3.3s2.3-5.4,2.3-9.6V1095.3z"/>
		<path class="st1" d="M875.5,1101.6h-6.6v14.8h-8.3V1076h15c4.8,0,8.4,1.1,11,3.2c2.6,2.1,3.9,5.1,3.9,9c0,2.7-0.6,5-1.8,6.9
			c-1.2,1.8-3,3.3-5.4,4.4l8.7,16.5v0.4H883L875.5,1101.6z M868.9,1094.9h6.7c2.1,0,3.7-0.5,4.8-1.6c1.1-1.1,1.7-2.5,1.7-4.4
			c0-1.9-0.5-3.4-1.6-4.5c-1.1-1.1-2.7-1.6-5-1.6h-6.7V1094.9z"/>
		<path class="st1" d="M916.1,1094.2l8.4-18.2h9.1l-13.2,25.7v14.6h-8.4v-14.6l-13.2-25.7h9.1L916.1,1094.2z"/>
	</g>
	<g>
		<path class="st2" d="M267.9,969.5l67.5-72.7V896h-35.6l-57.7,64.2V896h-28.6v17.3c14.4,15.6,22.5,37.4,22.3,60.4
			c-0.3,21.8-7.4,43.7-22.3,59.7v14.4h28.6v-67.2l63.6,67.2H341v-1.7L267.9,969.5z M213.5,922.3v101.9c11-14.3,16.2-32.4,16.4-50.6
			C230.2,955.2,224.7,936.9,213.5,922.3z"/>
		<g>
			<path class="st3" d="M229.9,973.6c-0.2,18.2-5.5,36.4-16.4,50.6c-12.6,16.6-32.9,27.9-61.5,27.9c-15.8,0-29.1-3.4-40-9.2
				l15.3-22.6c6.6,3.5,14.8,5.6,24.7,5.6c35.8,0,49.3-26.9,49.7-51.8c0.3-14.8-4.5-30.6-15.4-41.3l15.3-22.7
				c4.5,3.7,8.5,7.8,11.9,12.3C224.7,936.9,230.2,955.2,229.9,973.6z"/>
			<path class="st3" d="M229.9,973.6c-0.2,18.2-5.5,36.4-16.4,50.6c-12.6,16.6-32.9,27.9-61.5,27.9c-15.8,0-29.1-3.4-40-9.2
				l15.3-22.6c6.6,3.5,14.8,5.6,24.7,5.6c35.8,0,49.3-26.9,49.7-51.8c0.3-14.8-4.5-30.6-15.4-41.3l15.3-22.7
				c4.5,3.7,8.5,7.8,11.9,12.3C224.7,936.9,230.2,955.2,229.9,973.6z"/>
			<path class="st3" d="M188.9,902l-15,22.2c-6.2-2.8-13.4-4.4-21.9-4.4c-35.8,0-50.5,28.8-49.9,54.4c0.3,13.2,4.3,26.8,13.2,36.8
				l-15.8,23.4C82.3,1019.5,74,996.9,74,973.8c0-40,25.6-80.1,78-80.1C166.3,893.8,178.5,896.9,188.9,902z"/>
			<path class="st3" d="M188.9,902l-15,22.2c-6.2-2.8-13.4-4.4-21.9-4.4c-35.8,0-50.5,28.8-49.9,54.4c0.3,13.2,4.3,26.8,13.2,36.8
				l-15.8,23.4C82.3,1019.5,74,996.9,74,973.8c0-40,25.6-80.1,78-80.1C166.3,893.8,178.5,896.9,188.9,902z"/>
		</g>
		<path class="st2" d="M508.7,900.3v125.4h78.1v26.5H480.1V900.3H508.7z"/>
		<g>
			<path class="st2" d="M644.6,928h62.5v-27.8H593.5c0,9.2,0,18.5,0,27.8L644.6,928L644.6,928z"/>
			<path class="st2" d="M593.5,962.9c0,29.7,0,59.5,0,89.2h113.7v-28.2h-85.2v-34.3h82.2V963h-82.2v0H593.5z"/>
		</g>
		<g>
			<path class="st3" d="M943.3,1052.1H829.7v-28.2h85.2v-34.3h-82.2V963h82.2v0h28.4C943.3,992.7,943.3,1022.4,943.3,1052.1z"/>
			<path class="st3" d="M829.7,928v-27.8h113.7c0,9.2,0,18.5,0,27.8h-28.4v0H829.7z"/>
		</g>
		<path class="st2" d="M744.9,900.3v125.4h78.1v26.5H716.2V900.3H744.9z"/>
		<g>
			<path class="st3" d="M790.9,914.1c0,1.2,0,2,0,2.9c-0.1,2.6-1.9,4.5-4.3,4.5c-2.4,0-4.1-1.8-4.3-4.4c-0.4-4-0.6-8.1-1.4-12
				c-4.5-20.8-22.3-37.4-43.3-40.6c-2.8-0.4-5.6-0.6-8.4-0.7c-2.7-0.1-4.6-1.8-4.6-4.3c0-2.6,1.9-4.3,4.7-4.3
				c29.7-0.1,55.9,22.1,60.7,51.4C790.4,909.2,790.6,911.9,790.9,914.1z"/>
			<path class="st3" d="M730.8,878.3c17.4,0.9,31.7,13.1,35.8,29.4c0.7,3,1,6.2,1.2,9.4c0.2,2.6-1.8,4.5-4.2,4.5
				c-2.4,0-4.3-1.9-4.3-4.5c-0.4-15.6-11.1-27.7-26.5-29.9c-1.2-0.2-2.5-0.2-3.8-0.3c-2.6-0.1-4.4-1.9-4.3-4.4
				c0.1-2.4,1.9-4.1,4.5-4.2C729.6,878.2,730.2,878.3,730.8,878.3z"/>
		</g>
		<g>
			<path class="st2" d="M442.1,910.1l-15.3,22.6c10.9,10.7,15.6,26.5,15.4,41.3c-0.4,24.9-13.9,51.8-49.7,51.8
				c-9.9,0-18-2.1-24.7-5.6l-15.2,22.6c10.9,5.8,24.1,9.2,39.9,9.2c53.4,0,77.4-39.3,77.9-78.5C470.7,949.5,461.2,925.4,442.1,910.1
				z"/>
			<path class="st2" d="M342.6,974.2c-0.6-25.6,14.1-54.4,49.9-54.4c8.5,0,15.7,1.6,21.9,4.4l15-22.2c-10.4-5.2-22.6-8.2-36.9-8.2
				c-52.5,0-78.1,40.1-78.1,80c0,23.1,8.4,45.7,25.7,60.6l15.7-23.4C347,1001.1,343,987.4,342.6,974.2z"/>
		</g>
		<g>
			<path class="st3" d="M392.3,1016.9c-24.6-0.1-44-19.8-43.9-44.5c0.1-24.1,19.9-43.6,44.2-43.5c24.4,0.1,43.8,19.8,43.8,44.4
				C436.3,997.5,416.6,1017,392.3,1016.9z M392.5,1011.1c21.2,0,38.2-17.1,38.1-38.3c-0.1-21.2-17.2-38.1-38.4-38
				c-21,0-38,17.3-37.9,38.4C354.3,994.2,371.4,1011.2,392.5,1011.1z"/>
			<path class="st3" d="M389.5,940.7c2.1,0,3.8,0,5.7,0c0,0.7,0.1,1.4,0.1,2c0,10.4,0,20.9-0.1,31.3c0,1-0.6,2.2-1.3,2.9
				c-5.9,5.5-11.9,11-18.1,16.6c-1.3-1.4-2.6-2.8-3.9-4.3c5.2-4.8,10.2-9.5,15.4-14.1c1.7-1.5,2.3-3,2.2-5.1c-0.1-9,0-18,0-27
				C389.5,942.4,389.5,941.6,389.5,940.7z"/>
		</g>
	</g>
	<g>
		<path d="M429.5,180.6c-4.2,7.7-18.1,31.3-38.4,45.9c0,0-29.7,22.9-50.2,38.1c-6.3,6.5-12.6,13.7-18.7,21.8
			c-2.9,3.9-5.8,7.9-8.5,12.2c-0.1,0.2-0.2,0.4-0.4,0.6c-13.1,20.2-21.6,43.1-25.3,66.9c5.9,3.7,11.1,7.5,15.7,11.2l-16.1-8.4
			l-3.1-1.6l-5.3-2.8l3.1-32l23-52.9l49.3-40l2-1.6l52.9-36L429.5,180.6z"/>
		<path class="st4" d="M651.8,506.6l-12.4,18.2c-4,5.9-8.4,11.3-13.3,16.5c0,0,0,0,0,0c-5.7,6-11.9,11.4-18.5,16.2
			c-1.7,1.3-3.4,2.4-5.1,3.5c-1.2,0.9-2.5,1.7-3.8,2.4c-7.2,6.5-15.7,13.2-25.8,19.6c-1.9,1.2-3.8,2.4-5.7,3.5
			c-25.8,15.2-54.9,23.6-84.8,25.9l-17,1.3l3.3,14.1l0,0.3l1.5,6.3l0.2,1.1c0,0-4.4,2.2-11.3,4.5c-0.1,0-0.2,0.1-0.2,0.1
			c-9.1,2.9-22.5,5.8-36.5,3.7c-8.3-1.2-16.8-4.1-24.7-9.8c-0.7-0.5-1.3-1-1.9-1.5l-0.1-0.7l-0.1-0.6v-0.2l-3.5-18.8
			c0,0-65.6-0.3-91.1-28.9c-0.4-0.4-0.7-0.9-1.1-1.3l0,0c-10.1-11.8-13.7-23.5-14.5-33.1c0-0.1,0-0.2,0-0.3c-0.3-3.3-0.2-6.3,0.1-9
			c0.7-8.1,3.1-13.1,3.1-13.1c-3.1-20.4-6-57.6,9.4-97.7c1.5-3.9,3.1-7.8,5-11.7c0,0,0-0.1,0.1-0.2c0.1-0.2,0.2-0.5,0.4-0.7
			c4.4-9.1,9.2-17.2,14.1-24.3c0.3-0.5,0.7-1,1.1-1.5c0.5,0.5,1,1,1.5,1.5l0.4,0.4c5.3,0.6,10.5-0.5,15.6-2.8
			c28.7-12.8,52.3-62.9,52.3-62.9c54.3,18,95.4-26,95.4-26c34.4,22,79.5,2.6,79.5,2.6l35.2,36.8l-0.1-24.2c0.1,0.2,0.2,0.4,0.4,0.6
			c1.8,2.9,3.7,5.9,5.5,8.8c5.2,8.5,9.8,15.7,9.9,16.1c0.3,0.9,15.5,38.8,15.5,38.8l6.3,22.7l13.3,47.8l0.8,15.2c0,0,0,0,0,0.1
			L651.8,506.6z"/>
		<path class="st4" d="M551.5,732.9l17.1,9.9l59.4-3.7l35.7,52.2l-92.7-2.3c-8.7-0.2-17.1-3.5-23.4-9.5c-2.6-2.4-5.2-5.5-7.6-9.3
			C529.7,754,551.5,732.9,551.5,732.9z"/>
		<path class="st5" d="M340.5,547.5c0,0,21.1,70.2,100.2,69l-6,24.9c0,0-15.7,9.3-39.2-8.1l-3-18.6c0,0-61.6-1.7-93.6-31.5
			L340.5,547.5z"/>
		<path d="M612.7,273.2c-0.2-0.2-0.4-0.4-0.6-0.7l-14,21.8l0.1,12.9l0,8.6l0.1,24.2l-35.2-36.8c0,0-45.1,19.4-79.5-2.6
			c0,0-41.1,44-95.4,26c0,0-23.6,50.1-52.3,62.9c-5.1,2.3-10.3,3.4-15.6,2.8l-0.4-0.4c-0.5-0.5-1-1-1.5-1.5
			c-3.9-3.9-8.8-8.4-14.7-13.1c-4.6-3.7-9.8-7.4-15.7-11.2c3.7-23.8,12.1-46.7,25.3-66.9c0.1-0.2,0.2-0.4,0.4-0.6
			c2.8-4.2,5.7-8.3,8.5-12.2c6.1-8.1,12.4-15.3,18.7-21.8c20.5-15.3,50.2-38.1,50.2-38.1c20.3-14.6,34.2-38.2,38.4-45.9l3.8-4.1
			c0,0,29.5-60.3,23.3-82.4c0,0,42,22.7,42.6,34.2c0,0,1.2-56.5-15.7-66.7c3.7,1.6,62.2,28.2,70.4,77.3c0,0,34.2,12.1,60.3,72.4
			C614.3,211.3,617.1,255.4,612.7,273.2z"/>
		<path d="M319.9,391.9l0.4,0.4c-1-0.1-2-0.2-3-0.5c-1.3-0.2-2.7-0.7-4-1.2c-14.9-5.8-22.5-12.2-26.2-17.9c-1.3-2-2.1-3.8-2.6-5.5
			c-1.7-5.9,0.3-10,0.3-10s0.4-1.1,1.1-3c0,0,0,0,0-0.1c4.6-12.8,22.6-61.7,36.3-67.7c-2.9,3.9-5.8,7.9-8.5,12.2
			c-0.1,0.2-0.2,0.4-0.4,0.6c-13.1,20.2-21.6,43.1-25.3,66.9c5.9,3.7,11.1,7.5,15.7,11.2c5.9,4.7,10.8,9.2,14.7,13.1
			C318.9,391,319.4,391.4,319.9,391.9z"/>
		<polygon points="599.5,341.3 598.3,340.1 598.2,315.8 598.2,307.3 598.2,307.3 598.6,316.4 		"/>
		<path class="st2" d="M687.4,461.6c-1.3,12.8-5.4,36.3-21.6,59.4c-7.3,10.3-15.2,18-22,23.5c-18.7,18.6-44.2,18.6-44.2,18.6
			c1-0.6,1.9-1.3,2.8-2.1c3.3-2.7,6.3-6.4,9.1-10.5c12.3-18.1,19.8-45.5,19.8-45.5c8.7-25.3,0.7-51.1-4.6-63.8
			c-2.3-5.4-4-11.1-4.8-16.9c-2.6-18.5-8.9-44.3-8.9-44.3c-0.7-3.2-2.2-6.7-4-10c-4.4-8.3-10.6-15.7-10.6-15.7v-0.9l-0.1-13.3
			l-0.1-24.2l0-8.6l-0.1-12.9l14-21.8c0.2,0.2,0.4,0.4,0.6,0.7c10.4,11.8,22.7,44.4,22.7,44.4c11.2,26.4,7.8,58.7,7.8,58.7
			c4.5,3.3,9,7.1,13.4,11.7C681,413.4,686.1,445.3,687.4,461.6z"/>
		<path class="st2" d="M430.9,178.1c0,0-0.4,0.9-1.3,2.6c-4.2,7.7-18.1,31.3-38.4,45.9c0,0-29.7,22.9-50.2,38.1
			c-8.8,6.6-15.9,11.8-18.2,13.2c-6.9,4.1-36.8,45.5-36.8,76.4c0,0,0,0,0,0.1c0,4,0.5,7.9,1.7,11.5c0.2,0.1,0.3,0.2,0.5,0.3
			c5.9,3.7,11.1,7.5,15.7,11.2c5.9,4.7,10.8,9.2,14.7,13.1c0.5,0.5,1,1,1.5,1.5l0.4,0.4c11.3,11.5,24.9,25.5,31.9,47.9
			c3.7,11.8,4.4,22.2,4.4,29c0,0,2.6,50.7-17.2,79.1c-0.7,1.1-1.5,2-2.2,3c-2.2,2.8-3.4,6-3.4,6c-2.8,4.1-6.6,8.3-12.6,12.4
			c-6.2,4.3-14.8,9-21.1,12.2c0,0-0.1,0.1-0.2,0.1c-4.4,2.3-7.7,3.9-8.1,3.9c0,0-28.1,9.4-64.3,1c-2.3-0.5-4.1-1-5.4-1.4
			c-0.2,0-0.4-0.1-0.7-0.2c-37.3-10.3-66-40.9-74.3-78.8c-2.2-10.1-3.4-21.2-3-33.1c0-0.8-0.1-3.4,0.4-6.3
			c2.5-15,15.1-77.5,57.7-94.9c0,0,5.9-22.5,16.1-50.2c20.1-54.5,60.5-99.3,113.2-123.9c6-2.8,12.4-5.6,19.1-8.3
			c13.2-5.3,27-8.8,41.2-10.3C402.2,178.6,415.7,177.7,430.9,178.1z"/>
		<path class="st6" d="M188.8,400.9c0,0-39.7,37.9-27.1,100.6c3,15,9.8,29.1,20.7,39.8c1,1,2.1,2,3.2,3c6.9,6,14.4,10.4,22.1,13.5
			c40.3,16.3,86.2-2.5,106.4-41c11.4-21.9,9.9-44,9.2-50.8c-0.6-6.1-2.5-23.3-13.9-40.6c-12.5-18.9-32.9-32.4-33.4-31.8
			c0,0,0,0,0,0.1c0.7,4.8,2.4,9.4,1.6,14.2c-3.4,22.3-13.4,74.9-33.5,77.9c-25.5,3.7-39.5-6.2-39.5-6.2S188.8,473.7,188.8,400.9z"/>
		<path class="st4" d="M683.2,689.7c-1.9,0-1.9,0-1.9,0l4-30.5c0,0-5.4-5.4-7.7-11.4c-1.3-3.5-0.4-7.4,2.3-10
			c7.1-6.6,25.6-20.8,41.4-8.4c0.4,0.3,0.8,0.8,1,1.3c1.4,3.5,6.9,18.3,3.1,30.3L683.2,689.7z"/>
		<path d="M465.4,366.7c0,0-7.5-17.4-22.7-16.2c-15.2,1.2-52.2,52.8-52.2,55.6C390.5,409,460.1,358.7,465.4,366.7z"/>
		<path d="M572.6,367.4v22.4c0,0,32.9,10.6,35.1,18C609.9,415.2,613.9,369.2,572.6,367.4z"/>
		<path class="st5" d="M420.6,485.2c0,0,92.3,38.5,173.1-13.7c0,0-8.4,55.6-60.3,65.3C533.4,536.8,470.3,547.6,420.6,485.2z"/>
		<path class="st7" d="M478,497.6c0,0,17.2,13.6,44.5,12.5c0,0,25.9-5.4,31.4-19.7C554,490.4,525.4,498.8,478,497.6z"/>
		<circle cx="446.7" cy="411.8" r="9.9"/>
		<circle cx="584.7" cy="419.3" r="9.9"/>
		<path class="st8" d="M388.5,227.1c-12.7,7.6-30.1,19.7-47.5,37.6c-6.3,6.5-12.6,13.7-18.7,21.8c-2.9,3.9-5.8,7.9-8.5,12.2
			c-0.1,0.2-0.2,0.4-0.4,0.6c-13.1,20.2-21.6,43.1-25.3,66.9c-0.2,0.9-0.3,1.9-0.4,2.8c-0.2,1.3-0.3,2.6-0.5,3.9
			c-0.2,2.1-0.5,4.2-0.7,6.3c-0.6,6.4-1.3,13.3-2.1,20.2c-1.4,11.2-3.2,22.1-5.5,30.2c-5.7,19.6-16.1,43-24.5,49.9
			c0,0-0.1,0.1-0.1,0.1c-1.8,1.5-3.5,2.2-5.1,1.9c-0.6-0.1-1.1-0.3-1.4-0.5l15-50.6c0,0,7.4-91.9,30.9-138.5
			c12.7-25.1,39.3-42,61.1-52.1C373.3,230.9,388.5,227.1,388.5,227.1z"/>
		<path class="st2" d="M608.3,368.3c0,0,50.4,47.2,42.3,93.2c-8.1,46-23,93.9-44.8,98.8c0,0,13-20.4,21.9-45.6
			c9.1-25.9,7-54.5-5.3-79.1l-2.3-4.6v0c0-20.6-3.7-40.9-10.9-60.2L608.3,368.3z"/>
		<path class="st9" d="M322.6,559.3"/>
		<path class="st10" d="M372.4,753.4l-17.6-3.3l-5.7-1.1l-17.6-5.1l-3.9-1.1c0.1,0.7-3.4-0.9-7.8-3.3c3.6,1.5,7.6,2.9,11.7,4.2
			l0-0.1L372.4,753.4z"/>
		<path class="st10" d="M394.5,630.6c0,0,28,15.2,40.4,11.8c0,0,29.2-6.8,34.5-15.2l4.4,5C473.8,632.2,425,666,394.5,630.6z"/>
		<path class="st5" d="M555.2,734.7l13.4,8.1c0,0-10.1,42.1-12,42.6c-1.9,0.5-13.1-8.9-13.1-8.9L555.2,734.7z"/>
		<path class="st11" d="M285.7,401.2c6.3,4.1,16.9,12,25.5,25.5c2.2,3.5,11.4,18.3,13.2,39.8c2.4,29.9-11.3,52.3-16.3,59.7
			c0,0-7.5,18.2-44.3,33.6c10.5-7.5,30.2-24.1,39.2-51.7c10.3-31.7,0.9-60.8-4.7-77.9C294.3,417.7,289.4,407.9,285.7,401.2z"/>
		<path d="M552.4,490.8c0,0-13.1,14-18.6,15.9l21.4,22.4c0,0,16-9.5,21.6-19.6c0,0,13.4-17.9,16.9-37.9
			C593.7,471.5,560,490.8,552.4,490.8z"/>
		<g>
			<path class="st12" d="M863,688.3c0,0,13.5-13,1.8-28.1s-16.4-5.7-16.4-5.7l-8.2-14.1l-10.5-19.1l-5.2-8l-6.6-12.7l-9.3-10.1l-7-3
				l-9.4,2l-13,9.5l-122.6,94.7l-33.9,24.6L615,729l-0.6,7.3l6.9,13l11.1,15l40.9,51.6l8.4,5.5l13.6-2.7L863,688.3z"/>
			<g>
				<path class="st2" d="M697.7,818.9c-10.4,8-20.8,6.7-28.7-3.6c-17.6-22.7-35.1-45.3-52.6-68.1c-7.6-9.9-6.2-20.9,3.5-28.5
					c41-32.2,81.9-64.4,123-96.3c14.5-11.3,29.6-21.9,44.4-32.9c8.9-6.5,19.6-5.7,26.4,2.9c18.6,23.7,36.9,47.5,55.1,71.5
					c5.9,7.7,4.8,17.7-2.2,24.3c-5.5,5.2-11.4,10.1-17.3,15c-4.7,3.9-9.7,7.5-14.6,11.2c-6.2,4.8-12.4,9.7-18.7,14.3
					c-6,4.4-12.3,8.4-18.3,13c-16.2,12.3-32.3,24.9-48.4,37.3C732.2,792.3,715,805.7,697.7,818.9z M625,720
					c-10.1,7.8-11.2,15.7-3.4,25.7c16.7,21.7,33.5,43.4,50.3,65.1c7.3,9.4,15.4,10.5,24.7,3.3c54.7-42.2,109.4-84.4,164.1-126.6
					c9.3-7.2,10.3-15.3,3.1-24.7c-1.1-1.5-2-3.4-3.5-4.4c-1.7-1.1-4.2-2.2-5.9-1.7c-4.3,1.2-7.2,0.3-9.8-3.2
					c-9-11.8-18.1-23.6-27.3-35.4c-2.6-3.4-3.1-6.6-0.4-10.2c0.8-1.1,1.5-3.5,0.9-4.2c-3.9-4.6-7.5-9.8-12.5-13
					c-5.5-3.5-11.4-1.1-16.5,2.8c-27.5,21.3-55.1,42.5-82.6,63.8C679,678.3,652,699.2,625,720z"/>
			</g>
			
				<rect x="769.6" y="737.3" transform="matrix(-0.611 -0.7916 0.7916 -0.611 654.594 1807.1425)" class="st3" width="3.4" height="10.9"/>
			
				<rect x="766.3" y="733.1" transform="matrix(-0.611 -0.7916 0.7916 -0.611 652.6854 1797.7571)" class="st11" width="3.4" height="10.9"/>
			
				<rect x="763.1" y="728.9" transform="matrix(-0.611 -0.7916 0.7916 -0.611 650.7768 1788.3718)" class="st3" width="3.4" height="10.9"/>
			
				<rect x="759.8" y="721.4" transform="matrix(-0.611 -0.7916 0.7916 -0.611 648.8682 1778.9866)" class="st11" width="3.4" height="17.3"/>
			
				<rect x="756.5" y="720.4" transform="matrix(-0.611 -0.7916 0.7916 -0.611 646.9597 1769.6013)" class="st3" width="3.4" height="10.9"/>
			
				<rect x="753.3" y="710.7" transform="matrix(-0.611 -0.7916 0.7916 -0.611 645.0886 1760.2084)" class="st11" width="3.4" height="21.9"/>
			
				<rect x="750.1" y="710.4" transform="matrix(-0.611 -0.7916 0.7916 -0.611 643.2175 1750.8156)" class="st3" width="3.4" height="14"/>
			
				<rect x="746.7" y="698" transform="matrix(-0.611 -0.7916 0.7916 -0.611 641.1964 1741.4531)" class="st11" width="3.4" height="30.3"/>
			
				<rect x="743.5" y="700.3" transform="matrix(-0.611 -0.7916 0.7916 -0.611 639.4004 1732.045)" class="st3" width="3.4" height="17.3"/>
			
				<rect x="740.3" y="682.9" transform="matrix(-0.611 -0.7916 0.7916 -0.611 637.6044 1722.6368)" class="st11" width="3.4" height="43.5"/>
			
				<rect x="737" y="689.5" transform="matrix(-0.611 -0.7916 0.7916 -0.611 635.5081 1713.2897)" class="st3" width="3.4" height="22"/>
			
				<rect x="733.7" y="681.1" transform="matrix(-0.611 -0.7916 0.7916 -0.611 633.562 1703.9121)" class="st11" width="3.4" height="30.3"/>
			
				<rect x="730.5" y="683.4" transform="matrix(-0.611 -0.7916 0.7916 -0.611 631.7285 1694.5116)" class="st3" width="3.4" height="17.2"/>
			
				<rect x="727.2" y="676.9" transform="matrix(-0.611 -0.7916 0.7916 -0.611 629.8199 1685.1262)" class="st11" width="3.4" height="21.9"/>
			
				<rect x="724" y="676.6" transform="matrix(-0.611 -0.7916 0.7916 -0.611 627.9489 1675.7334)" class="st3" width="3.4" height="14"/>
			
				<rect x="720.7" y="670.8" transform="matrix(-0.611 -0.7916 0.7916 -0.611 626.0403 1666.3481)" class="st11" width="3.4" height="17.2"/>
			
				<rect x="717.4" y="669.7" transform="matrix(-0.611 -0.7916 0.7916 -0.611 624.0566 1656.9781)" class="st3" width="3.4" height="10.9"/>
			
				<rect x="714.2" y="665.5" transform="matrix(-0.611 -0.7916 0.7916 -0.611 622.1481 1647.5929)" class="st11" width="3.4" height="10.9"/>
			
				<rect x="710.9" y="661.3" transform="matrix(-0.611 -0.7916 0.7916 -0.611 620.2394 1638.2075)" class="st3" width="3.4" height="10.9"/>
			<path class="st2" d="M674.1,813.9L619,743.6c-3.8-4.8-4.2-13.8,0-18.9l8.2-6.6l73.2,93l-9.5,7.2
				C684.4,820.1,678.3,819.2,674.1,813.9z"/>
			<circle class="st0" cx="655" cy="773.3" r="8.9"/>
		</g>
		<path class="st4" d="M331.6,743.8C331.6,743.8,331.6,743.8,331.6,743.8l-2.8,11.9c0,0,0,0,0,0L331.6,743.8z"/>
		<path class="st4" d="M368.7,851.9h-49.6c1.9-11.1,3.4-20.6,3.7-25.2c0.9-13.9,14.1-59.1,16.4-67.1l30.4,8.3l0.7-3.5
			c-1,11.8-1.5,26.5-1.7,42.2c0,1.8,0,3.7,0,5.5C368.4,825.3,368.5,838.9,368.7,851.9z"/>
		<path class="st13" d="M302.5,726.6c1.5,3.1,10.6,9.1,17.4,12.9c-9.7-3.9-17-8.4-17.7-13.2c-0.9-6.2,5.1-17.1,13.3-28.3
			c11.8-16,25.9-30.1,41.8-42.1c-13.8,11.8-37.4,35.1-48.4,54.6C306.5,710.4,301.4,724.4,302.5,726.6z"/>
		<path class="st13" d="M541.5,780.4c-1.7,2.5,0.2,37.6,2.4,71.5H409c-5.9-34.7-13.2-58.9-20.4-76.2c-2-4.7-3.9-9-5.9-12.7
			c-1.8-3.5-6.5-12.3-10.7-25.2c-0.2-0.4-0.3-0.9-0.5-1.4c-10.9-34.4-8.1-66.1-3.7-88l26.7-17.8c4.8,3,17.9,12.4,38.2,11.2
			c20.2-1.3,32.2-11,36.7-14.6c4.8,5.7,11.4,11.1,17,17c11.2,11.6,22.3,21.5,32.9,30c3.1,2.6,6.4,5.3,9.8,7.9
			c8.9,7,17.6,13.3,26.1,19v33.5C555.2,734.7,544.9,775.4,541.5,780.4z"/>
		<path class="st13" d="M372.4,753.7c-0.4,3.3-3.4,30.4-3.9,52.9c0.2-15.7,0.7-30.4,1.7-42.2L372.4,753.7z"/>
		<path class="st10" d="M357.3,656c3.4-2.6,6.9-5.1,10.5-7.5C366.9,648.3,362.9,651.2,357.3,656z"/>
		<path class="st10" d="M409,851.9h-40.3c-0.2-13-0.3-26.6-0.2-39.8c0-1.8,0-3.7,0-5.5c0.4-22.5,3.5-49.6,3.9-52.9l0-0.3l-40.8-9.7
			l0,0.1c-4.1-1.3-8.1-2.7-11.7-4.2c-6.8-3.8-15.9-9.8-17.4-12.9c-1.1-2.2,4-16.3,6.4-16.1c11-19.5,34.6-42.8,48.4-54.6
			c3.4-2.6,6.9-5.1,10.5-7.5c-4.4,21.9-7.2,53.6,3.7,88c0.2,0.5,0.3,1,0.5,1.4c4.2,12.8,8.9,21.7,10.7,25.2c2,3.7,3.9,8,5.9,12.7
			C395.8,793,403,817.2,409,851.9z"/>
		<path class="st5" d="M328.8,755.7c-0.2,0-0.4-0.1-0.7-0.2c-9.8,41.3-17,73.4-20.7,90.7c-0.4,1.7-0.8,3.6-1.2,5.7h0.3L328.8,755.7z
			"/>
		<path class="st5" d="M319.1,851.9c1.9-11.1,3.4-20.6,3.7-25.2c0.9-13.9,14.1-59.1,16.4-67.1l30.4,8.3l0.7-3.5
			c0.3-3.9,0.7-7.6,1.2-10.7c0,0-21-3.9-39.9-9.9l-2.8,11.9c0,0,0,0,0,0l-22.3,96.2H319.1z"/>
		<path class="st5" d="M372.4,753.4l0,0.3l-2.1,10.7c0.4-3.9,0.8-7.6,1.2-10.8c0,0-7-1.3-16.6-3.6c-7-1.6-15.3-3.8-23.3-6.3l0-0.1
			L372.4,753.4z"/>
		<path class="st12" d="M469.9,764.9c-6.4-23.1-12.5-44.7-18.7-66.9c1.3,0.3,2.9,0.2,3.9,1c8.5,6.7,16.9,13.6,25.5,20.3
			c5.9,4.7,7.1,7.2,5,15.9c-1-1.8-2-3.6-3.1-5.3c-1.4-2.2-2.4-5.3-4.4-6.5c-5.4-3.3-11.2-5.8-15.3-7.8c3.5,12.5,8.1,26.7,11.5,41.2
			c1.6,6.9,1.6,14.3,1.2,21.4c-0.5,9.8-7.3,16.7-16.6,18.3c-9.3,1.6-21.6-3.3-24.4-11.3c-1.4-4.1-1-10.3,1.1-14.1
			C442.4,758.8,452,757.1,469.9,764.9z"/>
		<path class="st10" d="M555.2,701.2v33.5c0,0-12,45.7-13.7,45.7C539,750.6,524.9,679,524.9,679l26.3,19.6v-0.2L555.2,701.2z"/>
		<path class="st4" d="M716.1,790.2l-1.8,13.7c-0.4,3.1-3,5.5-6.1,5.7l-1.1,0.1c-2,0.1-3.8,1.2-5,2.8l-2.5,3.6
			c0,0,30.8,5.6,36.7,3.4c4.4-1.6,12.9-7.4,17-10.2c1.5-1,2.4-2.6,2.7-4.4l0.2-1.4c0.4-2.4,2.1-4.5,4.4-5.2l0,0
			c1.1-0.4,2.4-0.4,3.5-0.2c3.3,0.7,10.3,1.9,12.9-0.4c3.4-3.1,21.4-20.8,21.4-23.9s7.1-5,7.1-5s20.8-0.3,23.3-8.1
			c2.1-6.7,2.7-24.8,2.8-29.8c0-0.9-0.1-1.8-0.5-2.6c-1.8-4.5-8.1-18.9-14.1-18.9c-7.1,0-22.1,7.5-22.1,11.8v12.3c0,3-2,5.5-4.8,6.3
			c-9.1,2.5-27.8,8.6-28.8,16.2l-2.2,13.7l-0.4-0.6c-3.8-4.9-10-7.3-16-6.1c-1.1,0.2-2.3,0.5-3.4,0.7
			C727,766.9,717.8,777.5,716.1,790.2z"/>
	</g>
</g>
</svg>
